<?xml version="1.0" encoding="UTF-8"?>
<svg width="200px" height="80px" viewBox="0 0 200 80" version="1.1" xmlns="http://www.w3.org/2000/svg" xmlns:xlink="http://www.w3.org/1999/xlink">
    <title>哈希坊Logo</title>
    <desc>Created with Sketch.</desc>
    <g id="PBK-Bin" stroke="none" stroke-width="1" fill="none" fill-rule="evenodd">
        <g id="Logo">
            <g id="Logo" transform="translate(39.792772, 24.250648)">
                <rect id="矩形" fill="#D8D8D8" x="3.42913532" y="7.42568151" width="9.52263476" height="5.15603799"></rect>
                <path d="M23.4982114,18.033798 L18.2188232,18.033798 L18.2188232,12.7667448 L12.9394351,12.7667448 L12.9394351,18.033798 L7.66004687,18.033798 L7.66004687,12.7667448 L7.64771185,12.7667448 L7.64771185,7.48735661 L7.66004687,7.48735661 L7.66004687,0 L12.9394351,0 L12.9394351,7.48735661 L18.2188232,7.48735661 L18.2188232,0 L23.4982114,0 L23.4982114,7.48735661 L23.5105464,7.48735661 L23.5105464,12.7667448 L23.4982114,12.7667448 L23.4982114,18.033798 Z" id="PBK-B@PBK6.com" fill="#FFFFFF"></path>
                <path d="M12.9517701,17.9597878 L18.2311583,17.9597878 L18.2311583,23.239176 L12.9517701,23.239176 L12.9517701,30.5415073 L7.67238189,30.5415073 L7.67238189,23.239176 L-5.32907052e-14,23.239176 L-5.32907052e-14,17.9597878 L7.67238189,17.9597878 L7.67238189,12.5817195 L12.9517701,12.5817195 L12.9517701,17.9597878 Z" id="PBK-B@PBK6.com" fill="#1FD1AF"></path>
                <path d="M23.5228815,12.6927347 L23.5228815,17.9721229 L27.7784631,17.9721229 L27.7784631,23.251511 L23.5228815,23.251511 L23.5228815,30.7388676 C20.6071559,30.7388676 18.2434933,28.375205 18.2434933,25.4594795 L18.2434933,23.251511 L18.2311583,23.251511 L18.2311583,17.9721229 L18.2434933,17.9721229 L18.2434933,12.6927347 L18.2311583,12.6927347 L18.2311583,7.41334649 L18.2434933,7.41334649 L18.2434933,7.40101147 C18.3657582,7.40101147 18.4870525,7.40516767 18.6072424,7.41334649 L28.370544,7.41334649 C29.8284068,7.41334649 31.0102381,8.59517779 31.0102381,10.0530406 C31.0102381,11.5109034 29.8284068,12.6927347 28.370544,12.6927347 L23.5228815,12.6927347 Z" id="PBK-B@PBK6.com" fill-opacity="0.66" fill="#00D0FF"></path>
                <path d="M23.4982114,18.033798 L18.2188232,18.033798 L18.2188232,12.7667448 L12.9394351,12.7667448 L12.9394351,18.033798 L7.66004687,18.033798 L7.66004687,12.7667448 L7.64771185,12.7667448 L7.64771185,7.48735661 L7.66004687,7.48735661 L7.66004687,0 L12.9394351,0 L12.9394351,7.48735661 L18.2188232,7.48735661 L18.2188232,0 L23.4982114,0 L23.4982114,7.48735661 L23.5105464,7.48735661 L23.5105464,12.7667448 L23.4982114,12.7667448 L23.4982114,18.033798 Z" id="PBK-B@PBK6.com" fill-opacity="0.66" fill="#FF5A5A"></path>
            </g>
            <path d="M95.4385485,25.0665898 C95.9557224,24.9541607 96.4391604,25.1284232 96.8888769,25.5893826 C98.2042976,26.7586455 99.5534268,27.7142787 100.936305,28.4563109 C101.442236,28.8048412 101.605256,29.2376868 101.425369,29.7548608 C101.200511,30.3057635 100.851986,30.5643466 100.379784,30.5306178 C100.109954,30.4744033 99.991905,30.5812093 100.025634,30.8510392 C100.04812,31.0196829 100.003149,31.1939454 99.8907194,31.373832 C99.7445616,31.632419 99.5140853,31.7898174 99.1992838,31.846032 L92.4367059,31.846032 C92.3242768,31.8347891 92.2118494,31.8010608 92.0994203,31.7448463 C91.8183474,31.6324172 91.6497063,31.4131837 91.5934917,31.0871392 C91.5710059,30.8285522 91.4192289,30.7610958 91.1381561,30.8847678 C90.8458404,30.9634682 90.5760145,30.9297399 90.3286704,30.7835821 C90.1937555,30.6936388 90.126299,30.7835807 90.126299,31.0534106 L90.126299,38.5748813 C90.0925703,38.8334683 89.9913856,39.0583231 89.8227419,39.2494526 C89.5753979,39.5417684 89.2830865,39.7047881 88.9457992,39.7385169 L86.3318351,39.7385169 C85.7921754,39.716031 85.4267862,39.3506419 85.2356567,38.6423384 L85.2356567,27.4275896 C85.3031142,26.8766869 85.6347751,26.5169191 86.2306494,26.3482754 L89.0975777,26.3482754 C89.7271808,26.5169191 90.0700845,26.8654441 90.126299,27.393861 L90.126299,28.5574966 C90.126299,28.8385694 90.2668333,28.8947831 90.5479061,28.7261394 C91.5822541,28.1864797 92.6671788,27.4275945 93.8027129,26.4494611 C94.1512432,26.1121737 94.4885255,25.7692701 94.81457,25.4207398 C95.0394282,25.2183674 95.247419,25.1003186 95.4385485,25.0665898 Z M95.6746485,27.3432682 C95.4947619,27.4107256 95.2755284,27.5962309 95.0169414,27.8997895 C94.4772816,28.484421 93.8926589,29.0240727 93.2630558,29.5187608 C92.981983,29.743619 92.981983,29.8560465 93.2630558,29.8560465 L98.2548839,29.8560465 C98.5247138,29.8560465 98.6821122,29.8504251 98.7270838,29.8391822 C98.7720555,29.8166964 98.6596281,29.6930262 98.3897982,29.4681679 C97.6252801,28.8835365 96.9563369,28.3101566 96.3829484,27.748011 C96.1356043,27.4332094 95.8995067,27.2982965 95.6746485,27.3432682 Z M87.5291993,28.3551252 C87.3268269,28.4225827 87.2256422,28.5406315 87.2256422,28.7092752 L87.2256422,36.9727743 C87.2256422,37.2426042 87.2481277,37.4337308 87.2930993,37.54616 C87.4055284,37.7035607 87.5685482,37.7653958 87.7821636,37.7316671 C88.0182647,37.6979383 88.1363135,37.5686468 88.1363135,37.3437885 L88.1363135,28.6586823 C88.1475564,28.6024678 88.1025855,28.5293899 88.0013993,28.4394466 C87.8777272,28.3382604 87.7203288,28.3101536 87.5291993,28.3551252 Z M91.0369704,33.9709318 C91.2280999,33.1501992 91.7396447,32.78481 92.5716202,32.8747533 L99.5028409,32.8747533 C100.064987,32.9309679 100.424754,33.2851143 100.582155,33.9372032 L100.582155,39.8565669 C100.458483,40.4636841 100.081851,40.8515588 99.4522481,41.0202024 L92.1668774,41.0202024 C91.4810597,40.8965304 91.1044278,40.5086558 91.0369704,39.8565669 L91.0369704,33.9709318 Z M93.3136487,34.8984674 C93.1337621,34.9771678 93.0438202,35.0839738 93.0438202,35.2188888 L93.0438202,38.2713242 C93.0213343,38.5411541 93.0494412,38.7491448 93.1281416,38.8953027 C93.2855423,39.0302176 93.5047758,39.0751886 93.7858486,39.0302169 L98.2548839,39.0302169 C98.4797421,38.9627595 98.5921696,38.8278465 98.5921696,38.6254741 L98.5921696,35.6404959 C98.5921696,35.370666 98.5696841,35.1795393 98.5247124,35.0671102 C98.3897975,34.8872236 98.1593213,34.8253885 97.8332768,34.8816031 L93.8027129,34.8816031 C93.532883,34.8816031 93.3698633,34.8872245 93.3136487,34.8984674 Z M120.23879,25.0328613 C120.778449,24.9316751 121.177567,25.1565299 121.436154,25.7074326 C121.503611,25.9547767 121.492369,26.1796316 121.402425,26.382004 C121.26751,26.640591 121.070762,26.8260962 120.812175,26.9385253 C120.564831,27.0509545 120.31187,27.1690033 120.053283,27.2926753 C119.77221,27.4275903 119.77221,27.5400177 120.053283,27.629961 C121.020173,27.9560054 121.78468,28.2426954 122.346825,28.4900395 C122.774056,28.7823552 122.886483,29.2039581 122.684111,29.7548608 C122.380552,30.2720347 121.958949,30.4181904 121.41929,30.1933322 C119.890254,29.6199436 118.541124,29.1758553 117.371861,28.8610537 C116.955874,28.7373817 116.669184,28.6867893 116.511783,28.7092752 C116.489297,28.731761 116.551132,28.7935961 116.69729,28.8947823 C116.96712,29.1421264 117.045819,29.4400591 116.93339,29.7885893 L116.899661,29.9066393 C116.775989,30.198955 116.843446,30.3451107 117.102033,30.3451107 L123.426139,30.3451107 C124.033257,30.4800257 124.303082,30.8510362 124.235625,31.4581534 C124.201896,31.8628983 123.93207,32.1383455 123.426139,32.2845034 L117.203219,32.2845034 C116.922146,32.2845034 116.871553,32.3407171 117.05144,32.4531462 C117.298784,32.6892474 117.399969,32.9759373 117.354997,33.3132247 C117.354997,33.5942975 117.48991,33.7348318 117.75974,33.7348318 L121.672254,33.7348318 C122.403043,33.9259613 122.802161,34.3475642 122.869618,34.9996531 L122.869618,39.4855526 C122.847132,39.6991679 122.785297,39.9240228 122.684111,40.160124 C122.594168,40.3737393 122.403041,40.5761087 122.110725,40.7672382 C121.717223,40.9920964 121.267514,41.121388 120.761582,41.1551167 C119.985822,41.2113313 119.373092,41.2000885 118.923376,41.1213882 C118.36123,41.0314449 118.007084,40.80659 117.860926,40.4468168 C117.793468,40.3006589 117.782225,40.0870468 117.827197,39.805974 C117.973355,39.2438284 118.338744,38.9852453 118.923376,39.0302169 C119.148234,39.0639457 119.373089,39.0864312 119.597947,39.0976741 C119.991449,39.1426457 120.300624,39.1257816 120.525483,39.0470812 C120.649155,39.0021096 120.750339,38.917789 120.82904,38.794117 C120.862768,38.6929308 120.879632,38.5074255 120.879632,38.2375956 L120.879632,36.5174386 C120.879632,36.2476087 120.857147,36.0564821 120.812175,35.944053 C120.710989,35.7866522 120.609804,35.6967103 120.508618,35.6742244 C120.452404,35.6629815 120.289384,35.6573602 120.019554,35.6573602 L117.776604,35.6573602 C117.495531,35.6573602 117.354997,35.7922731 117.354997,36.062103 L117.354997,40.8346953 C117.321268,41.1045252 117.208841,41.3293801 117.017711,41.5092667 C116.62421,41.8802828 116.1745,41.8915255 115.668569,41.5429953 C115.499925,41.3743516 115.393119,41.138254 115.348147,40.8346953 L115.348147,36.062103 C115.348147,35.7922731 115.213234,35.6573602 114.943405,35.6573602 L112.616133,35.6573602 C112.458733,35.6910889 112.335062,35.797895 112.245119,35.9777815 C112.222633,36.0339961 112.211391,36.1913945 112.211391,36.4499815 L112.211391,40.2613097 C112.087718,40.8796698 111.705465,41.1776025 111.064619,41.1551167 C110.558688,41.0764163 110.27762,40.7728623 110.221405,40.2444454 L110.221405,36.9053172 C110.221405,36.6354873 110.086492,36.5792736 109.816662,36.7366743 C109.321974,36.9840184 108.89475,37.0964458 108.534977,37.07396 C108.310118,37.0177454 108.11337,36.8434829 107.944727,36.5511672 C107.674897,36.0452362 107.798567,35.6123905 108.315741,35.2526173 C109.440032,34.6792288 110.339452,34.1451985 111.014026,33.6505104 C111.474986,33.3244659 111.868482,33.0096691 112.194526,32.7061105 C112.475599,32.4250377 112.48122,32.2845034 112.211391,32.2845034 L108.821669,32.2845034 C108.248281,32.1271026 107.978455,31.7617134 108.012184,31.1883249 C108.068398,30.7386084 108.349467,30.4575398 108.855398,30.3451107 L113.880955,30.3451107 C114.150785,30.3451107 114.381261,30.2101978 114.57239,29.9403679 L114.842219,29.5524894 C115.033348,29.2601736 114.99962,29.1421248 114.741033,29.1983394 C113.178268,29.6030842 111.632391,29.856046 110.103355,29.9572322 C109.552452,29.9909609 109.102743,29.9628541 108.754212,29.8729108 C108.293253,29.7042671 108.085262,29.3669848 108.130234,28.8610537 C108.276392,28.3326368 108.608053,28.0571896 109.125227,28.0347038 C110.114603,28.0234609 111.092722,27.9447617 112.059612,27.7986038 C112.363171,27.7648751 112.582404,27.7255255 112.717319,27.6805538 C112.739805,27.6468251 112.604892,27.5906114 112.312576,27.511911 C111.67173,27.3769961 111.025272,27.2645686 110.373184,27.1746253 C109.900981,26.9722529 109.692991,26.6293492 109.749205,26.145904 C109.760448,25.7074304 110.035895,25.4263618 110.575555,25.3026898 C110.755442,25.2914469 111.019646,25.3195538 111.368176,25.3870112 C113.178285,25.668084 114.92091,26.0559587 116.596104,26.5506468 C116.708533,26.5843756 116.820961,26.5787542 116.93339,26.5337825 C117.877795,26.1740093 118.777214,25.7636492 119.631675,25.3026898 C119.867777,25.1677749 120.070146,25.0778329 120.23879,25.0328613 Z M115.685433,32.4025533 C115.809105,32.323853 115.764134,32.2845034 115.550519,32.2845034 C115.336903,32.2845034 115.106427,32.4194163 114.859083,32.6892462 L114.319426,33.2963604 C114.060839,33.5886761 114.06646,33.7348318 114.33629,33.7348318 L114.943405,33.7348318 C115.213234,33.7348318 115.348147,33.5999189 115.348147,33.330089 C115.336904,32.9253441 115.449332,32.6161687 115.685433,32.4025533 Z M139.895424,25.3026898 C140.221469,25.0665886 140.586858,25.0384818 140.991603,25.2183684 C141.340133,25.398255 141.520017,25.6455953 141.53126,25.9603969 L141.53126,26.8710682 C141.53126,27.152141 141.666173,27.2926753 141.936003,27.2926753 L145.932838,27.2926753 C146.360069,27.337647 146.629894,27.5681232 146.742324,27.984111 C146.877239,28.6586857 146.607413,29.0915313 145.932838,29.2826608 L140.46881,29.2826608 C140.187737,29.2826608 140.047203,29.4175737 140.047203,29.6874036 L140.047203,30.2270607 C140.047203,30.5081335 140.182116,30.6486678 140.451946,30.6486678 L144.398188,30.6486678 C144.611803,30.6711536 144.836658,30.721746 145.072759,30.8004464 C145.589933,30.9690901 145.90473,31.345722 146.017159,31.9303534 C146.084617,32.2001833 146.107102,32.5037374 146.084617,32.8410247 C146.073374,34.8647489 145.994674,36.6073742 145.848517,38.0689528 C145.803545,38.4961834 145.696739,38.9458932 145.528095,39.4180955 C145.336966,39.9802411 145.044654,40.4411936 144.651152,40.8009668 C144.044035,41.2394403 143.335742,41.4755379 142.526253,41.5092667 L141.548124,41.5092667 C140.76112,41.4867809 140.086556,41.3237611 139.52441,41.0202024 C139.108422,40.7054009 139.001616,40.2725553 139.203989,39.7216526 C139.293932,39.4743085 139.479437,39.300046 139.76051,39.1988598 C140.120283,39.0976736 140.547507,39.1314018 141.042196,39.3000455 C141.267054,39.35626 141.491909,39.3956096 141.716767,39.4180955 C142.143998,39.4630671 142.475659,39.4405816 142.71176,39.3506383 C143.13899,39.1257801 143.420059,38.8334688 143.554974,38.4736956 C143.701132,38.0914366 143.796695,37.6417268 143.841667,37.1245529 C143.909124,36.2700915 143.954095,35.3200797 143.976581,34.2744889 L143.976581,33.4312747 C143.954095,33.2064164 143.869775,33.004047 143.723617,32.8241604 C143.588702,32.7229742 143.453789,32.6667605 143.318874,32.6555176 L140.384489,32.6555176 C140.114659,32.6555176 139.962882,32.7904305 139.929153,33.0602604 C139.681809,35.039013 139.074701,36.8153664 138.10781,38.3893742 C137.455721,39.4574508 136.657487,40.3343848 135.713082,41.0202024 C135.04975,41.5036477 134.487613,41.6048324 134.026653,41.3237596 C133.813038,41.1776017 133.661261,40.9639896 133.571318,40.6829168 C133.470132,40.4243298 133.509481,40.1769894 133.689368,39.9408883 C133.768068,39.7272729 133.925467,39.5698745 134.161568,39.4686883 C134.217782,39.4574454 134.302103,39.4068531 134.414532,39.3169098 C135.493852,38.4512055 136.286465,37.5461647 136.792396,36.6017601 C137.5794,35.1851531 138.001003,33.5380912 138.057217,31.6605249 L138.057217,29.6874036 C138.057217,29.4175737 137.922304,29.2826608 137.652475,29.2826608 L136.45511,29.2826608 C136.18528,29.2826608 136.10096,29.3388745 136.202146,29.4513037 C136.303332,29.541247 136.365167,29.693024 136.387653,29.9066393 C136.432625,30.2326838 136.359547,30.5137524 136.168418,30.7498535 C136.011017,30.9522259 135.808647,31.0702747 135.561303,31.1040035 L134.802411,31.1040035 C134.521338,31.1040035 134.380803,31.2389164 134.380803,31.5087463 L134.380803,35.0165174 C134.380803,35.2975902 134.521338,35.3313184 134.802411,35.1177031 C135.218398,34.7017153 135.640001,34.6117734 136.067232,34.8478745 C136.325819,35.0165182 136.488839,35.2301303 136.556296,35.4887173 C136.679968,35.7922759 136.618133,36.0733445 136.370789,36.3319315 C136.022259,36.7591622 135.544442,37.1639009 134.937325,37.54616 C133.329588,38.5917508 132.092887,39.1876162 131.227182,39.3337741 C130.912381,39.3675028 130.631312,39.2101044 130.383968,38.8615741 C130.192839,38.5355296 130.170353,38.1870046 130.316511,37.8159885 C130.440183,37.6136161 130.648174,37.4505963 130.94049,37.3269243 L131.986075,36.83786 C132.255905,36.7029451 132.390818,36.5005757 132.390818,36.2307458 L132.390818,31.5087463 C132.390818,31.2389164 132.255905,31.1040035 131.986075,31.1040035 L131.17659,31.1040035 C130.569472,30.9803315 130.27154,30.6374278 130.282782,30.0752822 C130.327754,29.5581082 130.614444,29.2433114 131.142861,29.1308823 L131.986075,29.1308823 C132.255905,29.1308823 132.390818,28.9959693 132.390818,28.7261394 L132.390818,26.0447183 C132.458275,25.5500302 132.744965,25.2689616 133.250896,25.2015041 C133.858014,25.1677754 134.234646,25.448844 134.380803,26.0447183 L134.380803,28.7092752 C134.380803,28.990348 134.515716,29.1308823 134.785546,29.1308823 L135.173425,29.1308823 C135.443255,29.1308823 135.488226,28.990348 135.308339,28.7092752 C135.128452,28.3382591 135.195909,27.944763 135.51071,27.5287753 C135.679354,27.3826174 135.859238,27.3039182 136.050368,27.2926753 L139.136532,27.2926753 C139.406361,27.2926753 139.541274,27.1577624 139.541274,26.8879325 L139.541274,25.9772612 C139.575003,25.7186742 139.693052,25.4938193 139.895424,25.3026898 Z" id="哈希坊" fill="#868686" fill-rule="nonzero"></path>
            <path d="M86.0652963,46.7879658 C86.3813827,46.7221144 86.6085665,46.8110124 86.7468543,47.0546624 C86.7666097,47.1205137 86.7797798,47.1830716 86.7863649,47.2423378 L86.7863649,50.2253887 C86.7863649,50.390017 86.8653853,50.3966021 87.0234285,50.245144 C87.7741338,49.5932157 88.5314129,49.3166442 89.2952885,49.4154212 C89.7430776,49.4483469 90.1381798,49.5668775 90.4806068,49.7710167 C90.7637675,49.9554005 90.9711961,50.1891692 91.1028988,50.47233 C91.208261,50.71598 91.2741113,51.0123066 91.3004519,51.3613187 L91.3004519,54.2159601 C91.2806965,54.4661952 91.1457032,54.617651 90.8954681,54.6703321 C90.74401,54.6966726 90.6123093,54.6835026 90.5003621,54.6308215 C90.3225634,54.558385 90.2270804,54.4168068 90.2139101,54.2060825 L90.2139101,51.8947119 C90.1941547,51.5786254 90.1052568,51.315224 89.9472135,51.1044997 C89.6574676,50.7291471 89.265658,50.531596 88.771773,50.5118406 C88.3700798,50.4723298 87.9387599,50.6402482 87.4778005,51.0156008 C87.1880546,51.265836 86.9707485,51.5687476 86.8258755,51.9243448 C86.799535,51.9770259 86.7863649,52.0823865 86.7863649,52.2404297 L86.7863649,54.2159601 C86.7863649,54.3147371 86.7468547,54.4135127 86.6678331,54.5122897 C86.5097898,54.6637478 86.3155313,54.716428 86.0850516,54.6703321 C85.8479868,54.617651 85.7162861,54.4629027 85.6899455,54.2060825 L85.6899455,47.2127048 C85.7031158,47.0019805 85.8282315,46.8604023 86.0652963,46.7879658 Z M94.9044457,49.4845648 C95.3851605,49.3923729 95.8592831,49.3396926 96.3268276,49.3265224 L96.9096091,49.3265224 C97.2191104,49.3396926 97.4825118,49.3759103 97.6998212,49.4351765 C98.2200469,49.5668792 98.6052714,49.8039405 98.8555065,50.1463675 C99.02672,50.3966026 99.115618,50.666589 99.1222031,50.9563349 L99.1222031,52.5663922 C99.2012247,52.9746705 99.3592656,53.435623 99.5963304,53.9492635 C99.6292561,54.1073067 99.5864534,54.25547 99.467921,54.3937578 C99.2769521,54.597897 99.0365983,54.6835025 98.7468524,54.6505768 C98.5163727,54.6439917 98.3056515,54.512291 98.1146826,54.2554707 C98.0290759,54.0974275 97.9072527,54.0710873 97.7492095,54.1764495 C97.2223988,54.4859508 96.6824258,54.6439917 96.1292746,54.6505768 L95.5267378,54.6505768 C95.2633324,54.6374065 94.999931,54.6011888 94.7365256,54.5419226 C94.2031298,54.4299753 93.8244902,54.1566964 93.6005957,53.7220775 C93.3832862,53.1886816 93.4195039,52.6915114 93.7092498,52.230552 C93.8804633,51.9803169 94.1208171,51.7926434 94.4303184,51.6675259 C94.8385967,51.5226529 95.3653996,51.4205849 96.0107427,51.3613187 C96.3070738,51.3349781 96.8602168,51.302053 97.6701883,51.2625421 C97.8282315,51.255957 97.8973744,51.1736441 97.877619,51.0156008 C97.8512784,50.9299941 97.7887206,50.8279261 97.6899436,50.7093936 C97.4001977,50.4657437 97.0182656,50.334043 96.544136,50.3142876 C96.1951238,50.3077024 95.7605115,50.3933079 95.2402859,50.5711065 L94.4500737,50.8575584 C94.2920305,50.9036544 94.1603298,50.9135319 94.0549676,50.8871914 C93.877169,50.82134 93.775101,50.7159795 93.7487604,50.5711065 C93.676324,50.2879457 93.7981471,50.0278368 94.1142336,49.790772 C94.3644687,49.6327288 94.6278701,49.5306607 94.9044457,49.4845648 Z M97.6701883,52.260185 C96.8272911,52.2667701 96.2017127,52.3029878 95.7934344,52.3688392 C95.477348,52.4149351 95.2139465,52.5137106 95.0032222,52.6651687 C94.8188385,52.8100417 94.7628657,52.9977152 94.8353022,53.2281949 C94.9209089,53.4191638 95.0987049,53.540987 95.3686954,53.593668 C96.0996453,53.738541 96.8668019,53.6364729 97.6701883,53.2874608 C97.8282315,53.2084392 97.9072519,53.0899086 97.9072519,52.9318653 L97.9072519,52.4972487 C97.9072519,52.3392054 97.8282315,52.260185 97.6701883,52.260185 Z M102.508889,49.533953 C102.903997,49.4154206 103.318854,49.3462778 103.753473,49.3265224 L104.365887,49.3265224 C104.945379,49.3396926 105.482059,49.4318831 105.975944,49.6030966 C106.120817,49.668948 106.252518,49.7545534 106.371051,49.8599156 C106.608115,50.1233209 106.650918,50.3867224 106.49946,50.6501277 C106.427024,50.762075 106.308493,50.8246328 106.143865,50.8378031 C106.012162,50.8509734 105.870584,50.8213407 105.719126,50.7489042 L104.928913,50.4822076 C104.362592,50.2978239 103.769939,50.2681912 103.150936,50.3933088 C103.019233,50.4130642 102.887533,50.4525744 102.75583,50.5118406 C102.578031,50.5974473 102.479256,50.7093929 102.4595,50.8476808 C102.43316,50.9332875 102.4595,51.0090154 102.538522,51.0748668 C102.788757,51.2131546 103.042281,51.2954675 103.299101,51.3218081 C103.654698,51.3613189 104.181501,51.4370468 104.879525,51.5489941 C105.531453,51.6543562 106.058256,51.8584923 106.459949,52.1614085 C106.723355,52.385303 106.871518,52.645412 106.904444,52.941743 C106.983465,53.3631916 106.855057,53.7385386 106.519215,54.0677953 C106.196544,54.3312007 105.801442,54.4958266 105.333897,54.5616779 C105.057321,54.6077739 104.770872,54.6374065 104.474541,54.6505768 L103.802861,54.6505768 C103.058741,54.6176511 102.396945,54.4826579 101.817453,54.2455931 C101.382834,54.0677944 101.165528,53.7846379 101.165528,53.396115 C101.218209,53.1063691 101.38942,52.9812534 101.679166,53.0207642 C101.791113,53.0339345 101.922814,53.0668597 102.074272,53.1195407 C102.337677,53.2051475 102.601079,53.297338 102.864484,53.396115 C103.687626,53.6265947 104.444905,53.692445 105.136344,53.593668 C105.452431,53.540987 105.646689,53.3961162 105.719126,53.1590513 C105.752051,53.0273487 105.673031,52.9121105 105.482062,52.8133335 C105.238412,52.7211416 104.975011,52.6552913 104.69185,52.6157805 C103.644813,52.4643224 102.854609,52.2996965 102.321213,52.1218979 C102.011712,52.0231209 101.751603,51.8552025 101.540879,51.6181376 C101.435517,51.4930201 101.366374,51.3613194 101.333448,51.2230315 C101.247841,50.90036 101.270889,50.6073259 101.402592,50.3439205 C101.652827,49.9553976 102.021589,49.6854111 102.508889,49.533953 Z M109.234221,46.7879658 C109.550307,46.7221144 109.777491,46.8110124 109.915779,47.0546624 C109.935534,47.1205137 109.948704,47.1830716 109.955289,47.2423378 L109.955289,50.2253887 C109.955289,50.390017 110.03431,50.3966021 110.192353,50.245144 C110.943058,49.5932157 111.700337,49.3166442 112.464213,49.4154212 C112.912002,49.4483469 113.307104,49.5668775 113.649531,49.7710167 C113.932692,49.9554005 114.14012,50.1891692 114.271823,50.47233 C114.377185,50.71598 114.443036,51.0123066 114.469376,51.3613187 L114.469376,54.2159601 C114.449621,54.4661952 114.314627,54.617651 114.064392,54.6703321 C113.912934,54.6966726 113.781234,54.6835026 113.669286,54.6308215 C113.491488,54.558385 113.396005,54.4168068 113.382834,54.2060825 L113.382834,51.8947119 C113.363079,51.5786254 113.274181,51.315224 113.116138,51.1044997 C112.826392,50.7291471 112.434582,50.531596 111.940697,50.5118406 C111.539004,50.4723298 111.107684,50.6402482 110.646725,51.0156008 C110.356979,51.265836 110.139673,51.5687476 109.9948,51.9243448 C109.968459,51.9770259 109.955289,52.0823865 109.955289,52.2404297 L109.955289,54.2159601 C109.955289,54.3147371 109.915779,54.4135127 109.836757,54.5122897 C109.678714,54.6637478 109.484456,54.716428 109.253976,54.6703321 C109.016911,54.617651 108.88521,54.4629027 108.85887,54.2060825 L108.85887,47.2127048 C108.87204,47.0019805 108.997156,46.8604023 109.234221,46.7879658 Z M116.779398,50.1266122 C116.838664,50.1068568 116.907807,50.0936867 116.986828,50.0871016 L118.517864,50.0871016 C118.787855,50.106857 118.952481,50.2714828 119.011747,50.5809842 C119.038087,50.8443895 118.932727,51.0287705 118.695662,51.1341327 L118.57713,51.1637656 L116.957195,51.1637656 C116.614768,51.1176697 116.456727,50.9201186 116.483068,50.5711065 C116.496238,50.3669673 116.595014,50.218804 116.779398,50.1266122 Z M123.899836,46.9657635 L124.867845,46.9657635 C124.933697,46.9723487 124.999547,46.9855187 125.065398,47.0052741 C125.262952,47.0579552 125.371606,47.1962409 125.391361,47.4201355 C125.430872,47.7098814 125.259661,47.8810923 124.877723,47.9337734 L124.225798,47.9337734 C123.922882,47.9732842 123.705576,48.1642503 123.573873,48.5066772 C123.494851,48.7437421 123.445464,49.010436 123.425708,49.306767 C123.425708,49.4713954 123.504729,49.5537083 123.662772,49.5537083 L124.936989,49.5537083 C125.141128,49.5668786 125.269536,49.6821167 125.322217,49.8994262 C125.394654,50.235268 125.272831,50.4426966 124.956744,50.5217182 L123.67265,50.5217182 C123.508021,50.5217182 123.425708,50.6007387 123.425708,50.7587819 L123.425708,54.1863272 C123.340101,54.5287541 123.12938,54.6900875 122.793538,54.6703321 C122.556474,54.6571618 122.401725,54.505706 122.329289,54.2159601 L122.329289,50.7587819 C122.329289,50.6007387 122.250268,50.5217182 122.092225,50.5217182 L121.450178,50.5217182 C121.252624,50.5217182 121.137386,50.5151332 121.10446,50.5019629 C121.018853,50.4756224 120.943125,50.4097721 120.877274,50.3044099 C120.765327,50.0871005 120.775204,49.8763793 120.906907,49.6722402 C121.03861,49.5602929 121.209821,49.5207827 121.420545,49.5537083 L122.092225,49.5537083 C122.250268,49.5537083 122.329289,49.4746879 122.329289,49.3166447 C122.335874,48.7700786 122.437942,48.2663233 122.635496,47.8053639 C122.767199,47.5024478 122.99109,47.2653865 123.307176,47.094173 C123.452049,47.0217365 123.6496,46.9789338 123.899836,46.9657635 Z M127.503829,49.3759106 C127.661873,49.3034741 127.846254,49.3001816 128.056978,49.366033 C128.234776,49.4582248 128.33026,49.6228507 128.34343,49.8599156 L128.34343,52.3589615 C128.363185,52.6487074 128.465253,52.9121089 128.649637,53.1491737 C128.78134,53.3006318 128.91304,53.3994073 129.044743,53.4455032 C129.512288,53.6430573 129.98641,53.6693974 130.467125,53.5245245 C131.211245,53.2413637 131.626102,52.7540711 131.711709,52.062632 L131.711709,49.8401603 C131.77756,49.4187117 132.011329,49.2507933 132.413022,49.3364 C132.663258,49.4022513 132.791666,49.5701698 132.798251,49.8401603 L132.798251,54.1171836 L132.768618,54.3147366 C132.650085,54.5847271 132.439364,54.6966727 132.136448,54.6505768 C131.952064,54.6439917 131.810486,54.5353386 131.711709,54.3246143 L131.672199,54.0677953 C131.672199,53.9097521 131.593178,53.8932895 131.435135,54.0184071 C130.888569,54.4135151 130.374936,54.6275288 129.894221,54.6604544 C129.215952,54.7263058 128.603544,54.58802 128.056978,54.2455931 C127.530167,53.8636553 127.256888,53.3829477 127.237133,52.8034559 L127.237133,49.8401603 C127.256888,49.6360211 127.345786,49.4812728 127.503829,49.3759106 Z M135.335458,49.366033 C135.651545,49.2540857 135.895191,49.3232285 136.066405,49.5734637 C136.1125,49.7117515 136.132256,49.8730848 136.12567,50.0574686 C136.138841,50.2155118 136.214569,50.2056343 136.352856,50.0278356 C136.629432,49.7249195 136.925759,49.5273684 137.241845,49.4351765 C137.472325,49.3693252 137.722556,49.3331075 137.992547,49.3265224 C138.558868,49.2804264 139.082379,49.3693244 139.563093,49.593219 C139.86601,49.7249216 140.116241,49.9521054 140.313795,50.2747769 C140.504764,50.6369593 140.610124,51.0254764 140.62988,51.4403399 L140.62988,54.077673 C140.570614,54.5781432 140.300627,54.7625242 139.819912,54.6308215 C139.760646,54.6242364 139.701381,54.5781411 139.642115,54.4925344 C139.576263,54.3871722 139.540046,54.2752266 139.53346,54.1566942 L139.53346,51.8453236 C139.50712,51.5358223 139.434684,51.2724209 139.316152,51.0551115 C139.230545,50.9168236 139.115307,50.7950005 138.970434,50.6896383 C138.509475,50.4130627 137.999135,50.3340423 137.439398,50.4525747 C137.202333,50.4920855 136.938932,50.6204937 136.649186,50.8378031 C136.306759,51.1341342 136.125671,51.4600934 136.105915,51.8156907 L136.105915,54.04804 C136.09933,54.3180305 136.013725,54.505704 135.849096,54.6110662 C135.737149,54.6703324 135.605448,54.686795 135.45399,54.6604544 C135.164244,54.6077734 135.012788,54.4036373 134.999618,54.04804 L134.999618,49.7808943 C135.032544,49.57017 135.144489,49.4318843 135.335458,49.366033 Z M143.038678,52.8824771 C143.275743,52.7376041 143.516096,52.6816313 143.759746,52.714557 C144.372164,52.813334 144.665198,53.1392933 144.638857,53.6924445 C144.625687,53.8175621 144.566422,53.9492628 144.46106,54.0875506 C144.065952,54.4694884 143.621462,54.5485088 143.127577,54.3246143 C142.82466,54.1599859 142.656742,53.9328022 142.623816,53.6430563 C142.610646,53.333555 142.748932,53.0800311 143.038678,52.8824771 Z M148.894776,49.4154212 C149.684992,49.2903037 150.376421,49.2968887 150.969083,49.4351765 C151.28517,49.5141981 151.548571,49.6063886 151.759295,49.7117508 C152.095137,49.8763791 152.295981,50.1035629 152.361832,50.3933088 C152.421098,50.6106182 152.365125,50.7917067 152.193912,50.9365796 C151.956847,51.0748675 151.706616,51.0353572 151.44321,50.8180478 C151.311508,50.7390262 151.179807,50.6534207 151.048104,50.5612289 C150.369836,50.1002695 149.658652,50.0179565 148.914532,50.3142876 C148.637956,50.4196497 148.361384,50.6501259 148.084809,51.0057232 C147.762137,51.5654596 147.709457,52.1218951 147.926766,52.6750464 C148.045299,52.951622 148.262605,53.2117309 148.578691,53.4553809 C149.237205,53.8965849 149.935219,53.9492652 150.672754,53.6134233 C150.936159,53.4356247 151.19956,53.2611213 151.462966,53.0899078 C151.66052,52.95162 151.858071,52.8890621 152.055625,52.9022324 C152.345371,52.9614986 152.454024,53.1491721 152.381587,53.4652586 C152.355247,53.6496423 152.220254,53.8373158 151.976604,54.0282847 C151.107366,54.5287549 150.195339,54.7295985 149.240494,54.6308215 C148.647832,54.5715553 148.121029,54.3904668 147.66007,54.0875506 C147.317643,53.8504858 147.073996,53.5870844 146.929123,53.2973385 C146.586696,52.6256548 146.534016,51.8881308 146.771081,51.0847444 C146.98839,50.4789121 147.43288,50.008082 148.104564,49.6722402 C148.414065,49.5405375 148.677467,49.454932 148.894776,49.4154212 Z M155.165736,49.9488144 C156.002048,49.3561523 156.940416,49.1849414 157.980867,49.4351765 C158.560359,49.5668792 159.097039,49.9060085 159.590924,50.4525747 C159.795063,50.7093949 159.936642,50.9727963 160.015663,51.2427868 C160.193462,51.8354489 160.153952,52.4281021 159.897131,53.0207642 C159.699577,53.4356277 159.376911,53.7945121 158.929122,54.0974283 C158.303534,54.525462 157.595642,54.7065505 156.805426,54.6406991 C156.23252,54.5946032 155.705717,54.4003447 155.225002,54.0579177 C154.86282,53.7879272 154.599418,53.5113557 154.43479,53.2281949 C154.276747,52.9647895 154.181264,52.7013881 154.148338,52.4379827 C154.029806,51.8058099 154.141751,51.2065716 154.484178,50.6402501 C154.648806,50.390015 154.87599,50.1595387 155.165736,49.9488144 Z M157.417841,50.3241652 C156.917371,50.2517287 156.453126,50.3505043 156.025092,50.6204948 C155.531207,50.9695069 155.271098,51.371194 155.244757,51.8255683 C155.205247,52.2140912 155.310607,52.5861457 155.560842,52.941743 C156.034972,53.5014794 156.624333,53.7484182 157.328942,53.6825669 C157.638443,53.6430561 157.901845,53.5508656 158.119154,53.4059926 C158.593284,53.1228319 158.869855,52.7606549 158.948877,52.3194509 C159.008143,51.9901942 158.981803,51.6905751 158.869856,51.4205846 C158.757908,51.1242535 158.53731,50.8575596 158.208053,50.6204948 C157.964403,50.4624515 157.701002,50.363676 157.417841,50.3241652 Z M162.17752,49.4055436 C162.381659,49.3067666 162.59238,49.290304 162.80969,49.3561553 C163.020414,49.4483472 163.138945,49.6030955 163.165285,49.820405 C163.17187,49.971863 163.257476,49.9685705 163.422104,49.8105273 C163.626243,49.6327287 163.876475,49.4977354 164.172806,49.4055436 C164.64035,49.2738409 165.07167,49.2968885 165.466778,49.4746871 C165.651162,49.5405385 165.848713,49.6821167 166.059437,49.8994262 C166.197725,50.0706397 166.332718,50.0772247 166.464421,49.9191815 C166.629049,49.7282126 166.74758,49.6129745 166.820016,49.5734637 C167.063666,49.4220056 167.379748,49.3396926 167.768271,49.3265224 C168.169964,49.2870115 168.525556,49.3495694 168.835057,49.5141977 C169.151144,49.724922 169.361865,49.9883235 169.467227,50.3044099 C169.539664,50.5217193 169.579174,50.742318 169.585759,50.9662126 L169.585759,54.2060825 C169.579174,54.3575405 169.506738,54.4826562 169.368451,54.5814332 C169.216993,54.66704 169.009564,54.6703325 168.746159,54.5913109 C168.5947,54.499119 168.512387,54.3542482 168.499217,54.1566942 L168.499217,51.351441 C168.486047,51.2263235 168.456414,51.0946228 168.410318,50.9563349 C168.351052,50.8246323 168.242399,50.6995166 168.084356,50.5809842 C167.774855,50.4229409 167.439018,50.3867232 167.076835,50.47233 C166.635631,50.6303732 166.378815,50.9464549 166.306378,51.4205846 L166.306378,54.1764495 C166.299793,54.3805887 166.20431,54.5254594 166.019927,54.6110662 C165.651159,54.7295986 165.397635,54.6308231 165.259347,54.3147366 C165.246177,54.2620556 165.2363,54.2060828 165.229714,54.1468165 L165.229714,51.3020528 C165.203374,50.8015826 164.939972,50.511841 164.439502,50.4328194 C164.182682,50.4064788 163.932451,50.4657442 163.688801,50.6106171 C163.313448,50.8674374 163.106019,51.1571789 163.066509,51.4798505 L163.066509,54.1665718 C163.046753,54.4365624 162.901882,54.5978957 162.631892,54.6505768 C162.263124,54.6966727 162.042526,54.5353394 161.970089,54.1665718 L161.970089,49.7413837 C161.989845,49.5965108 162.058987,49.4845652 162.17752,49.4055436 Z" id="hash-fun.com" fill="#868686" fill-rule="nonzero"></path>
            <rect id="矩形" stroke-opacity="0.01" stroke="#979797" x="0.5" y="0.5" width="199" height="78.2401628" rx="27"></rect>
        </g>
    </g>
</svg>